<?xml version="1.0" encoding="UTF-8" standalone="no"?>
<svg
   xmlns:dc="http://purl.org/dc/elements/1.1/"
   xmlns:cc="http://creativecommons.org/ns#"
   xmlns:rdf="http://www.w3.org/1999/02/22-rdf-syntax-ns#"
   xmlns:svg="http://www.w3.org/2000/svg"
   xmlns="http://www.w3.org/2000/svg"
   xmlns:xlink="http://www.w3.org/1999/xlink"
   xmlns:sodipodi="http://sodipodi.sourceforge.net/DTD/sodipodi-0.dtd"
   xmlns:inkscape="http://www.inkscape.org/namespaces/inkscape"
   sodipodi:docname="portfolio.svg"
   inkscape:version="1.0 (4035a4fb49, 2020-05-01)"
   id="svg8"
   version="1.1"
   viewBox="0 0 74.313011 91.166197"
   height="344.56516"
   width="280.86807">
  <defs
     id="defs2">
    <linearGradient
       inkscape:collect="always"
       id="linearGradient1460">
      <stop
         style="stop-color:#3d3d3d;stop-opacity:1"
         offset="0"
         id="stop1456" />
      <stop
         style="stop-color:#6a5d5b;stop-opacity:1"
         offset="1"
         id="stop1458" />
    </linearGradient>
    <linearGradient
       id="linearGradient1331"
       inkscape:collect="always">
      <stop
         id="stop1327"
         offset="0"
         style="stop-color:#ff0200;stop-opacity:1" />
      <stop
         id="stop1329"
         offset="1"
         style="stop-color:#005c84;stop-opacity:1" />
    </linearGradient>
    <linearGradient
       inkscape:collect="always"
       id="linearGradient1283">
      <stop
         style="stop-color:#ff001a;stop-opacity:1"
         offset="0"
         id="stop1279" />
      <stop
         style="stop-color:#f9c700;stop-opacity:0"
         offset="1"
         id="stop1281" />
    </linearGradient>
    <linearGradient
       id="linearGradient1218"
       inkscape:collect="always">
      <stop
         id="stop1214"
         offset="0"
         style="stop-color:#f1d31a;stop-opacity:1" />
      <stop
         id="stop1216"
         offset="1"
         style="stop-color:#ff1f00;stop-opacity:1" />
    </linearGradient>
    <linearGradient
       id="linearGradient1186"
       inkscape:collect="always">
      <stop
         id="stop1182"
         offset="0"
         style="stop-color:#6f4422;stop-opacity:1;" />
      <stop
         id="stop1184"
         offset="1"
         style="stop-color:#6f4422;stop-opacity:0;" />
    </linearGradient>
    <linearGradient
       id="linearGradient930"
       inkscape:collect="always">
      <stop
         id="stop926"
         offset="0"
         style="stop-color:#ffdf00;stop-opacity:1" />
      <stop
         id="stop928"
         offset="1"
         style="stop-color:#ff0700;stop-opacity:1" />
    </linearGradient>
    <rect
       id="rect12"
       height="24.946428"
       width="120.19643"
       y="10.583333"
       x="22.678572" />
    <linearGradient
       gradientTransform="matrix(0.26458333,0,0,0.26458333,0,-0.33200772)"
       gradientUnits="userSpaceOnUse"
       y2="856.25165"
       x2="825.17181"
       y1="515.466"
       x1="684.45508"
       id="linearGradient932"
       xlink:href="#linearGradient930"
       inkscape:collect="always" />
    <linearGradient
       gradientUnits="userSpaceOnUse"
       y2="0"
       x2="1"
       y1="0"
       x1="0"
       id="linearGradient1212"
       xlink:href="#linearGradient1186"
       inkscape:collect="always" />
    <linearGradient
       gradientUnits="userSpaceOnUse"
       y2="544.45068"
       x2="644.13037"
       y1="686.36377"
       x1="771.39606"
       id="linearGradient1220"
       xlink:href="#linearGradient1218"
       inkscape:collect="always" />
    <linearGradient
       gradientUnits="userSpaceOnUse"
       y2="726.64667"
       x2="1027.2888"
       y1="436.73291"
       x1="793.19165"
       id="linearGradient1275"
       xlink:href="#linearGradient1283"
       inkscape:collect="always" />
    <linearGradient
       gradientUnits="userSpaceOnUse"
       y2="148.6342"
       x2="237.8866"
       y1="191.20468"
       x1="166.21094"
       id="linearGradient1333"
       xlink:href="#linearGradient1331"
       inkscape:collect="always" />
    <linearGradient
       gradientTransform="translate(-94.078874,37.952273)"
       gradientUnits="userSpaceOnUse"
       y2="0"
       x2="1"
       y1="0"
       x1="0"
       id="linearGradient1443"
       xlink:href="#linearGradient1186"
       inkscape:collect="always" />
    <linearGradient
       gradientTransform="translate(-94.078874,37.952273)"
       gradientUnits="userSpaceOnUse"
       y2="0"
       x2="1"
       y1="0"
       x1="0"
       id="linearGradient1451"
       xlink:href="#linearGradient1186"
       inkscape:collect="always" />
    <linearGradient
       gradientTransform="matrix(0.26458333,0,0,0.26458333,3.2499988,-0.01707786)"
       y2="810.16498"
       x2="824.84467"
       y1="538.50659"
       x1="611.39606"
       gradientUnits="userSpaceOnUse"
       id="linearGradient1453"
       xlink:href="#linearGradient1460"
       inkscape:collect="always" />
    <linearGradient
       gradientUnits="userSpaceOnUse"
       y2="0"
       x2="1"
       y1="0"
       x1="0"
       id="linearGradient1518"
       xlink:href="#linearGradient1186"
       inkscape:collect="always" />
  </defs>
  <sodipodi:namedview
     fit-margin-bottom="0"
     fit-margin-right="0"
     fit-margin-left="0"
     fit-margin-top="0"
     inkscape:snap-global="false"
     inkscape:snap-midpoints="true"
     inkscape:snap-smooth-nodes="true"
     inkscape:snap-intersection-paths="true"
     inkscape:object-paths="true"
     inkscape:window-maximized="1"
     inkscape:window-y="-8"
     inkscape:window-x="-8"
     inkscape:window-height="705"
     inkscape:window-width="1366"
     units="px"
     showgrid="false"
     inkscape:document-rotation="0"
     inkscape:current-layer="layer1"
     inkscape:document-units="mm"
     inkscape:cy="170.00257"
     inkscape:cx="95.105565"
     inkscape:zoom="0.98994949"
     inkscape:pageshadow="2"
     inkscape:pageopacity="0.0"
     borderopacity="1.0"
     bordercolor="#666666"
     pagecolor="#ffffff"
     id="base" />
  <metadata
     id="metadata5">
    <rdf:RDF>
      <cc:Work
         rdf:about="">
        <dc:format>image/svg+xml</dc:format>
        <dc:type
           rdf:resource="http://purl.org/dc/dcmitype/StillImage" />
        <dc:title></dc:title>
      </cc:Work>
    </rdf:RDF>
  </metadata>
  <g
     transform="translate(-146.83362,-132.05997)"
     id="layer1"
     inkscape:groupmode="layer"
     inkscape:label="Layer 1">
    <path
       d="m 188.2737,132.06213 c -1.2781,-0.0546 -2.95821,0.91773 -5.34644,3.87419 -2.36016,2.89741 -4.55853,6.52444 -6.56239,11.02516 -1.35887,3.19067 -2.08005,5.03285 -4.56872,11.67371 -3.366,10.4747 -5.8734,20.58835 -8.31525,30.74282 l -13.39712,10.25416 0.36329,0.0248 c -0.0854,0.0703 -0.17207,0.13994 -0.25735,0.21033 l 0.3576,-0.20361 10.28051,0.71107 c -0.70588,2.89531 -1.42335,5.80019 -2.18178,8.73435 -4e-4,0.001 -6.2e-4,0.003 -0.001,0.004 -0.007,0.0255 -0.0134,0.051 -0.0202,0.0765 l 4.31291,-9.61026 25.2336,-14.37483 10.98848,-6.25957 -2.4939,-5.55367 -1.34308,-2.99155 -1.25625,-2.79776 -0.10594,-0.23512 -13.52114,9.70173 c -3.54969,2.50212 -7.0688,5.02107 -10.54457,7.56543 l -0.36897,0.26458 16.60157,-36.99309 33.81292,75.30341 c -2.157,-14.43041 -5.54566,-28.97322 -9.57151,-43.587 -3.0783,-10.42085 -7.33055,-20.03942 -11.51092,-31.0317 -2.59156,-6.43852 -3.14031,-6.67531 -7.65018,-14.24099 -0.16392,-0.29455 -0.3537,-0.55375 -0.56276,-0.77618 -0.64604,-0.81978 -1.38965,-1.46906 -2.37143,-1.51102 z m 27.26345,18.59784 -11.50885,8.25789 4.72167,14.10301 10.77299,-6.13657 1.62367,-0.92501 z"
       inkscape:transform-center-y="8.5526249"
       inkscape:transform-center-x="-26.459683"
       style="opacity:1;fill:url(#linearGradient1453);fill-opacity:1;stroke:#206acc;stroke-width:0;stroke-linecap:round"
       id="path1423" />
    <path
       sodipodi:nodetypes="cccccccccc"
       transform="scale(0.26458333)"
       d="m 710.39174,507.84069 c -5.89663,-8.69943 -13.24435,-16.34943 -31.29715,5.9986 -8.92028,10.95082 -17.2278,24.65912 -24.80146,41.66974 -5.13589,12.0592 -7.86175,19.02133 -17.26775,44.12066 -20.89629,65.02727 -33.0552,126.36984 -49.70116,190.76875 L 691.19141,559.07812 818.98828,843.68945 C 810.83583,789.14932 798.02718,734.18357 782.81134,678.95039 771.17682,639.56451 755.10609,603.21183 739.30628,561.6662 729.5114,537.33165 727.43693,536.43536 710.39174,507.84069 Z"
       inkscape:transform-center-y="8.5526249"
       inkscape:transform-center-x="-26.459683"
       style="opacity:1;fill:url(#linearGradient1220);fill-opacity:1;stroke:#206acc;stroke-width:0;stroke-linecap:round"
       id="rect20" />
    <circle
       r="0"
       cy="166.50891"
       cx="136.17383"
       style="opacity:1;fill:url(#linearGradient1518);fill-opacity:1;stroke:#206acc;stroke-width:0.264583"
       id="path872" />
    <path
       sodipodi:nodetypes="cscccccccc"
       d="m 187.95781,134.03417 c -1.58918,-2.85568 -5.42865,-2.52941 -9.02034,5.00479 -4.15798,8.72209 -7.13526,15.70357 -10.09558,24.23507 -4.94139,14.96477 -8.89078,30.38336 -13.44673,45.52435 -0.007,0.0255 -0.0134,0.051 -0.0202,0.0765 l 27.50272,-61.28412 33.81292,75.30342 c -4.33557,-16.82951 -8.56649,-33.66072 -13.98674,-50.47289 -4.36462,-12.28715 -7.28782,-21.97745 -11.86367,-32.16647 z"
       inkscape:transform-center-y="8.5526249"
       inkscape:transform-center-x="-26.459683"
       style="opacity:1;fill:url(#linearGradient932);fill-opacity:1;stroke:#206acc;stroke-width:0;stroke-linecap:round"
       id="path35" />
    <path
       d="m 212.28699,150.6773 -11.50886,8.25789 4.72167,14.10302 10.77299,-6.13709 1.62367,-0.92501 z m -21.57646,16.70648 -13.52114,9.70173 c -3.54969,2.50212 -7.06881,5.02158 -10.54458,7.56594 l -3.45508,2.47892 -16.35611,12.51862 0.36328,0.0253 c -0.0854,0.0703 -0.17206,0.13993 -0.25734,0.21032 l 0.3576,-0.2036 10.91716,0.75499 26.70689,-15.21406 10.98848,-6.25957 -2.4939,-5.55366 -1.34307,-2.99155 -1.25626,-2.79776 z"
       style="opacity:1;fill:url(#linearGradient1333);fill-opacity:1;stroke:#206acc;stroke-width:0;stroke-linecap:round"
       id="rect1224" />
    <circle
       id="circle1407"
       style="opacity:1;fill:url(#linearGradient1212);fill-opacity:1;stroke:#206acc;stroke-width:0.264583"
       cx="136.17383"
       cy="166.50891"
       r="0" />
    <circle
       id="circle1425"
       style="opacity:1;fill:url(#linearGradient1451);fill-opacity:1;stroke:#206acc;stroke-width:0.264583"
       cx="42.094955"
       cy="204.46118"
       r="0" />
    <circle
       r="0"
       cy="204.46118"
       cx="42.094955"
       style="opacity:1;fill:url(#linearGradient1443);fill-opacity:1;stroke:#206acc;stroke-width:0.264583"
       id="circle1433" />
  </g>
</svg>
